<?xml version="1.0" encoding="UTF-8"?>
<!DOCTYPE svg PUBLIC "-//W3C//DTD SVG 1.1//EN" "http://www.w3.org/Graphics/SVG/1.1/DTD/svg11.dtd">
<svg xmlns="http://www.w3.org/2000/svg" version="1.1" width="525px" height="402px" style="shape-rendering:geometricPrecision; text-rendering:geometricPrecision; image-rendering:optimizeQuality; fill-rule:evenodd; clip-rule:evenodd" xmlns:xlink="http://www.w3.org/1999/xlink">
<g><path style="opacity:1" fill="#33ceda" d="M 455.5,32.5 C 457.202,35.5254 459.869,36.8587 463.5,36.5C 463.5,37.5 463.5,38.5 463.5,39.5C 459.957,39.872 457.79,41.872 457,45.5C 455.129,44.3322 453.629,44.8322 452.5,47C 453.624,47.2492 454.624,47.7492 455.5,48.5C 453.604,49.4656 451.604,49.7989 449.5,49.5C 449.5,48.5 449.5,47.5 449.5,46.5C 450.138,44.54 450.138,42.7067 449.5,41C 440.945,36.8176 431.945,35.4843 422.5,37C 415.091,39.4084 409.924,44.2417 407,51.5C 399.164,70.1525 391.664,88.8192 384.5,107.5C 384.271,104.614 384.271,101.781 384.5,99C 385.448,98.5172 386.448,98.3505 387.5,98.5C 387.662,96.4727 387.495,94.4727 387,92.5C 386.29,91.0267 385.124,90.3601 383.5,90.5C 382.167,87.1667 382.167,83.8333 383.5,80.5C 387.955,79.9733 388.621,81.4733 385.5,85C 386.304,86.7713 387.471,88.2713 389,89.5C 389.333,89.1667 389.667,88.8333 390,88.5C 390.121,86.2729 390.954,84.4396 392.5,83C 390.485,80.1347 389.152,76.9681 388.5,73.5C 386.265,73.7947 384.265,73.4614 382.5,72.5C 383.978,72.762 385.311,72.4287 386.5,71.5C 390.514,60.9601 395.014,50.6268 400,40.5C 406.733,30.3822 416.233,25.3822 428.5,25.5C 438.032,26.2004 447.032,28.5337 455.5,32.5 Z"/></g>
<g><path style="opacity:1" fill="#7dd7da" d="M 455.5,32.5 C 458.961,33.7306 462.294,35.2306 465.5,37C 464.934,37.9947 464.267,38.828 463.5,39.5C 463.5,38.5 463.5,37.5 463.5,36.5C 459.869,36.8587 457.202,35.5254 455.5,32.5 Z"/></g>
<g><path style="opacity:1" fill="#5ed0da" d="M 287.5,37.5 C 283.456,38.0421 279.789,37.2088 276.5,35C 270.298,32.9466 263.965,32.2799 257.5,33C 256.809,34.0674 256.309,35.2341 256,36.5C 255.329,37.2524 254.496,37.5858 253.5,37.5C 253.555,32.6133 256.055,30.2799 261,30.5C 269.699,30.4025 278.532,32.7359 287.5,37.5 Z"/></g>
<g><path style="opacity:1" fill="#7ddce1" d="M 200.5,41.5 C 204.981,40.3516 209.648,40.1849 214.5,41C 216.491,41.3736 218.158,42.207 219.5,43.5C 218.504,43.4142 217.671,43.7476 217,44.5C 216.722,43.5842 216.222,42.9175 215.5,42.5C 210.537,41.746 205.537,41.4126 200.5,41.5 Z"/></g>
<g><path style="opacity:1" fill="#7cd7df" d="M 197.5,41.5 C 193.498,43.6098 189.165,44.9431 184.5,45.5C 188.502,43.3902 192.835,42.0569 197.5,41.5 Z"/></g>
<g><path style="opacity:1" fill="#39ceda" d="M 140.5,42.5 C 138.306,43.1233 136.139,43.4566 134,43.5C 132.289,51.3424 132.789,59.0091 135.5,66.5C 135.333,67.8333 135.167,69.1667 135,70.5C 134.333,69.1667 133.667,69.1667 133,70.5C 132.503,68.1902 132.337,65.8568 132.5,63.5C 131.5,63.5 130.5,63.5 129.5,63.5C 129.768,65.099 129.434,66.4324 128.5,67.5C 128.783,61.2164 129.449,55.2164 130.5,49.5C 129.619,48.0295 128.286,47.1962 126.5,47C 116.135,45.1812 106.802,47.5145 98.5,54C 95.8002,55.8567 94.1335,58.3567 93.5,61.5C 91.631,63.6353 90.9644,66.3019 91.5,69.5C 91.648,74.3216 90.9813,78.9883 89.5,83.5C 88.3592,80.3601 88.1925,77.0267 89,73.5C 90.0373,67.0583 91.2039,60.725 92.5,54.5C 91.0695,54.5792 89.7362,54.2458 88.5,53.5C 87.2742,55.2779 85.6075,56.2779 83.5,56.5C 84.9442,52.4556 87.2776,48.9556 90.5,46C 102.122,37.4066 115.122,34.4066 129.5,37C 133.613,38.188 137.28,40.0214 140.5,42.5 Z"/></g>
<g><path style="opacity:0.725" fill="#afeaed" d="M 220.5,43.5 C 221.117,43.6107 221.617,43.944 222,44.5C 222.81,48.3575 222.643,52.0242 221.5,55.5C 221.693,51.4338 221.36,47.4338 220.5,43.5 Z"/></g>
<g><path style="opacity:1" fill="#42cfda" d="M 197.5,41.5 C 198.5,41.5 199.5,41.5 200.5,41.5C 205.537,41.4126 210.537,41.746 215.5,42.5C 213.376,49.9894 211.709,57.656 210.5,65.5C 210.833,66.8333 211.167,68.1667 211.5,69.5C 208.825,120.993 207.659,172.66 208,224.5C 209.494,225.747 210.994,225.747 212.5,224.5C 213.694,223.201 214.694,221.868 215.5,220.5C 215.805,224.227 214.305,226.894 211,228.5C 208.667,227.5 207,225.833 206,223.5C 205.262,207.482 205.429,191.482 206.5,175.5C 207.497,156.007 207.83,136.34 207.5,116.5C 207.534,93.9598 208.534,71.2932 210.5,48.5C 195.906,49.3615 183.239,54.6948 172.5,64.5C 170.803,67.8941 169.136,71.2274 167.5,74.5C 167.861,70.0893 168.361,65.7559 169,61.5C 167.488,60.7433 166.154,59.7433 165,58.5C 164.578,60.4257 163.411,61.4257 161.5,61.5C 167.166,53.4836 174.833,48.1503 184.5,45.5C 189.165,44.9431 193.498,43.6098 197.5,41.5 Z"/></g>
<g><path style="opacity:1" fill="#2fced9" d="M 287.5,37.5 C 293.398,40.0416 298.565,43.7083 303,48.5C 305.517,52.4696 306.017,56.6363 304.5,61C 305.381,61.7083 306.047,62.5416 306.5,63.5C 305.153,62.8288 303.986,62.8288 303,63.5C 302.667,61.8333 302.333,60.1667 302,58.5C 299.667,57.5 298,55.8333 297,53.5C 296.502,56.8168 296.335,60.1501 296.5,63.5C 295.5,63.5 294.5,63.5 293.5,63.5C 293.664,66.1873 293.497,68.854 293,71.5C 291.77,74.8304 290.603,78.1637 289.5,81.5C 293.139,82.2675 292.806,82.9342 288.5,83.5C 288.737,82.209 288.404,81.209 287.5,80.5C 289.084,73.3289 291.251,66.3289 294,59.5C 294.667,56.8333 294.667,54.1667 294,51.5C 288.653,45.9096 282.153,42.5763 274.5,41.5C 271.644,39.9234 268.478,38.9234 265,38.5C 261.908,39.7103 260.241,42.0436 260,45.5C 259.503,47.8098 259.337,50.1432 259.5,52.5C 259.5,52.8333 259.5,53.1667 259.5,53.5C 257.692,54.9179 257.025,56.9179 257.5,59.5C 256.434,65.1198 254.767,70.4532 252.5,75.5C 251.778,75.9175 251.278,76.5842 251,77.5C 250.667,76.8333 250.333,76.1667 250,75.5C 249.547,80.7386 248.213,85.7386 246,90.5C 245.502,93.4816 245.335,96.4816 245.5,99.5C 243.405,109.103 240.739,118.436 237.5,127.5C 237.38,123.958 237.714,120.458 238.5,117C 238.32,114.759 237.487,114.259 236,115.5C 234.842,115.002 234.009,114.169 233.5,113C 232.88,111.011 232.547,109.178 232.5,107.5C 232.5,107.167 232.5,106.833 232.5,106.5C 232.5,106.167 232.5,105.833 232.5,105.5C 233.404,104.791 233.737,103.791 233.5,102.5C 238.954,80.47 245.621,58.8033 253.5,37.5C 254.496,37.5858 255.329,37.2524 256,36.5C 256.309,35.2341 256.809,34.0674 257.5,33C 263.965,32.2799 270.298,32.9466 276.5,35C 279.789,37.2088 283.456,38.0421 287.5,37.5 Z"/></g>
<g><path style="opacity:1" fill="#7cd7dc" d="M 274.5,41.5 C 271.223,41.7839 268.057,41.4505 265,40.5C 262.861,44.4409 261.028,48.4409 259.5,52.5C 259.337,50.1432 259.503,47.8098 260,45.5C 260.241,42.0436 261.908,39.7103 265,38.5C 268.478,38.9234 271.644,39.9234 274.5,41.5 Z"/></g>
<g><path style="opacity:0.165" fill="#b2f8fc" d="M 458.5,52.5 C 459.1,53.8999 460.1,54.8999 461.5,55.5C 460.167,55.5 458.833,55.5 457.5,55.5C 457.263,54.209 457.596,53.209 458.5,52.5 Z"/></g>
<g><path style="opacity:1" fill="#8edfe5" d="M 259.5,53.5 C 259.405,55.7857 258.738,57.7857 257.5,59.5C 257.025,56.9179 257.692,54.9179 259.5,53.5 Z"/></g>
<g><path style="opacity:1" fill="#2dceda" d="M 463.5,39.5 C 462.108,43.9485 460.441,48.2819 458.5,52.5C 457.596,53.209 457.263,54.209 457.5,55.5C 458.833,55.5 460.167,55.5 461.5,55.5C 465.313,56.1596 468.979,57.3262 472.5,59C 473.574,59.7387 474.241,60.7387 474.5,62C 466.983,79.7352 459.983,97.5685 453.5,115.5C 452.778,110.511 452.612,105.511 453,100.5C 455.391,99.3975 455.891,100.064 454.5,102.5C 454.808,103.308 455.308,103.975 456,104.5C 456.392,101.373 457.225,98.3728 458.5,95.5C 457.32,93.5458 456.654,91.3791 456.5,89C 456.804,85.489 457.137,81.989 457.5,78.5C 456.5,78.5 455.5,78.5 454.5,78.5C 454.649,79.552 454.483,80.552 454,81.5C 453.667,81.1667 453.333,80.8333 453,80.5C 452.29,81.9733 451.124,82.6399 449.5,82.5C 449.5,81.1667 449.5,79.8333 449.5,78.5C 447.654,78.7778 446.32,78.1112 445.5,76.5C 447.429,73.7751 447.929,70.7751 447,67.5C 443.802,70.5245 442.802,74.1912 444,78.5C 447.569,79.1697 448.236,80.8364 446,83.5C 445,84.8333 444,84.8333 443,83.5C 442.105,81.1955 441.271,78.8622 440.5,76.5C 436.082,79.6724 435.416,83.5057 438.5,88C 438.238,90.5472 437.738,93.0472 437,95.5C 435.098,94.7937 433.265,93.7937 431.5,92.5C 436.541,76.6963 442.541,61.363 449.5,46.5C 449.5,47.5 449.5,48.5 449.5,49.5C 451.604,49.7989 453.604,49.4656 455.5,48.5C 454.624,47.7492 453.624,47.2492 452.5,47C 453.629,44.8322 455.129,44.3322 457,45.5C 457.79,41.872 459.957,39.872 463.5,39.5 Z"/></g>
<g><path style="opacity:0.729" fill="#afeceb" d="M 93.5,61.5 C 92.9216,64.2804 92.2549,66.9471 91.5,69.5C 90.9644,66.3019 91.631,63.6353 93.5,61.5 Z"/></g>
<g><path style="opacity:0.529" fill="#a0f5f6" d="M 221.5,59.5 C 221.5,61.5 221.5,63.5 221.5,65.5C 225.042,65.1872 228.375,65.5206 231.5,66.5C 227.894,66.2108 224.394,66.5442 221,67.5C 220.199,64.633 220.366,61.9664 221.5,59.5 Z"/></g>
<g><path style="opacity:1" fill="#20ceda" d="M 140.5,42.5 C 141.649,42.7911 142.316,43.6244 142.5,45C 141.336,51.1507 140.336,57.3173 139.5,63.5C 144.062,63.4642 148.396,64.4642 152.5,66.5C 153.637,71.934 153.303,77.2673 151.5,82.5C 150.15,85.9519 149.65,89.6186 150,93.5C 150.744,91.1003 151.577,88.767 152.5,86.5C 152.5,85.8333 152.5,85.1667 152.5,84.5C 153.794,83.7101 154.961,82.7101 156,81.5C 156.509,76.9068 158.009,72.7401 160.5,69C 159.748,68.3292 159.414,67.4959 159.5,66.5C 159.796,64.597 160.463,62.9303 161.5,61.5C 163.411,61.4257 164.578,60.4257 165,58.5C 166.154,59.7433 167.488,60.7433 169,61.5C 168.361,65.7559 167.861,70.0893 167.5,74.5C 167.029,76.5786 166.363,78.5786 165.5,80.5C 164.883,80.3893 164.383,80.056 164,79.5C 160.987,86.6174 159.153,93.9507 158.5,101.5C 157.849,102.091 157.182,102.757 156.5,103.5C 155.859,108.951 153.526,113.451 149.5,117C 151.25,118.754 151.917,120.921 151.5,123.5C 149.883,124.589 149.05,126.256 149,128.5C 148.667,127.5 148.333,126.5 148,125.5C 144.776,136.672 142.276,148.006 140.5,159.5C 139.288,160.23 138.288,161.23 137.5,162.5C 136.424,165.972 135.424,169.472 134.5,173C 134.095,173.945 133.428,174.612 132.5,175C 133.059,175.725 133.392,176.558 133.5,177.5C 130.979,183.234 129.145,189.234 128,195.5C 125.926,199.224 123.759,202.891 121.5,206.5C 121.987,207.446 122.32,208.446 122.5,209.5C 121.931,213.653 120.931,217.653 119.5,221.5C 117.579,224.106 115.579,224.106 113.5,221.5C 113.345,203.486 114.345,185.486 116.5,167.5C 117.884,162.056 118.55,156.389 118.5,150.5C 118.343,143.374 119.01,136.374 120.5,129.5C 121.737,124.04 122.404,118.373 122.5,112.5C 123.094,102.983 124.094,93.6499 125.5,84.5C 127.667,79.1699 128.667,73.5032 128.5,67.5C 129.434,66.4324 129.768,65.099 129.5,63.5C 130.5,63.5 131.5,63.5 132.5,63.5C 132.337,65.8568 132.503,68.1902 133,70.5C 133.667,69.1667 134.333,69.1667 135,70.5C 135.167,69.1667 135.333,67.8333 135.5,66.5C 132.789,59.0091 132.289,51.3424 134,43.5C 136.139,43.4566 138.306,43.1233 140.5,42.5 Z"/></g>
<g><path style="opacity:1" fill="#76d9e1" d="M 128.5,67.5 C 128.667,73.5032 127.667,79.1699 125.5,84.5C 125.939,78.6063 126.939,72.9397 128.5,67.5 Z"/></g>
<g><path style="opacity:1" fill="#17cddb" d="M 317.5,77.5 C 316.25,77.5774 315.417,78.244 315,79.5C 314.654,82.5755 313.988,85.5755 313,88.5C 310.562,87.1337 310.062,87.6337 311.5,90C 310.876,93.0153 309.876,95.8486 308.5,98.5C 308.685,99.5837 309.018,100.584 309.5,101.5C 305.142,104.304 303.475,108.137 304.5,113C 302.376,122.322 301.376,131.822 301.5,141.5C 301.243,147.688 300.577,153.688 299.5,159.5C 298.507,168.318 298.173,177.318 298.5,186.5C 297.978,189.253 297.144,191.92 296,194.5C 295.333,195.833 294.667,195.833 294,194.5C 294.13,191.853 294.63,189.186 295.5,186.5C 295.249,182.246 293.916,178.412 291.5,175C 293.158,174.275 293.658,173.108 293,171.5C 292.667,171.833 292.333,172.167 292,172.5C 291.427,168.152 290.76,163.819 290,159.5C 289.829,164.533 289.329,169.533 288.5,174.5C 287.575,175.641 286.741,175.641 286,174.5C 284.77,181.634 283.603,188.634 282.5,195.5C 281.414,195.38 280.747,194.713 280.5,193.5C 281.771,189.146 281.771,184.813 280.5,180.5C 283.855,178.815 284.189,176.815 281.5,174.5C 280.914,174.709 280.414,175.043 280,175.5C 279.853,180.961 279.02,186.294 277.5,191.5C 276.186,192.313 275.019,193.313 274,194.5C 273.667,193.833 273.333,193.167 273,192.5C 274.085,187.59 275.252,182.59 276.5,177.5C 276.547,176 275.881,175 274.5,174.5C 273.702,176.078 273.202,177.744 273,179.5C 271.88,177.586 271.714,175.752 272.5,174C 269.854,169.658 268.854,164.825 269.5,159.5C 268.833,157.181 268.666,154.847 269,152.5C 269.333,153.5 269.667,154.5 270,155.5C 270.666,148.507 271.166,141.507 271.5,134.5C 272.924,132.485 273.59,130.152 273.5,127.5C 277.1,111.414 281.767,95.7478 287.5,80.5C 288.404,81.209 288.737,82.209 288.5,83.5C 292.806,82.9342 293.139,82.2675 289.5,81.5C 290.603,78.1637 291.77,74.8304 293,71.5C 293.497,68.854 293.664,66.1873 293.5,63.5C 294.5,63.5 295.5,63.5 296.5,63.5C 296.335,60.1501 296.502,56.8168 297,53.5C 298,55.8333 299.667,57.5 302,58.5C 302.333,60.1667 302.667,61.8333 303,63.5C 303.986,62.8288 305.153,62.8288 306.5,63.5C 309.75,65.2905 311.583,64.2905 312,60.5C 313.966,58.1801 316.133,56.1801 318.5,54.5C 321.416,54.1067 324.083,53.1067 326.5,51.5C 327.5,51.8333 328.167,52.5 328.5,53.5C 326.434,54.9063 324.268,56.2396 322,57.5C 321.727,59.1012 321.227,60.6012 320.5,62C 320.957,62.414 321.291,62.914 321.5,63.5C 319.994,64.7472 318.494,64.7472 317,63.5C 316.812,65.0613 317.645,65.728 319.5,65.5C 318.201,69.3705 317.534,73.3705 317.5,77.5 Z"/></g>
<g><path style="opacity:1" fill="#6fd6dd" d="M 159.5,66.5 C 159.414,67.4959 159.748,68.3292 160.5,69C 158.009,72.7401 156.509,76.9068 156,81.5C 154.961,82.7101 153.794,83.7101 152.5,84.5C 154.07,78.1092 156.404,72.1092 159.5,66.5 Z"/></g>
<g><path style="opacity:1" fill="#22ceda" d="M 382.5,72.5 C 384.265,73.4614 386.265,73.7947 388.5,73.5C 389.152,76.9681 390.485,80.1347 392.5,83C 390.954,84.4396 390.121,86.2729 390,88.5C 389.667,88.8333 389.333,89.1667 389,89.5C 387.471,88.2713 386.304,86.7713 385.5,85C 388.621,81.4733 387.955,79.9733 383.5,80.5C 382.167,83.8333 382.167,87.1667 383.5,90.5C 385.124,90.3601 386.29,91.0267 387,92.5C 387.495,94.4727 387.662,96.4727 387.5,98.5C 386.448,98.3505 385.448,98.5172 384.5,99C 384.271,101.781 384.271,104.614 384.5,107.5C 384.5,107.833 384.5,108.167 384.5,108.5C 383.312,109.048 382.145,109.381 381,109.5C 379.843,115.261 378.176,120.928 376,126.5C 375.503,128.81 375.337,131.143 375.5,133.5C 374.958,136.673 373.958,139.673 372.5,142.5C 371.85,142.804 371.183,143.137 370.5,143.5C 368.871,148.216 366.871,152.716 364.5,157C 365.756,157.417 366.423,158.25 366.5,159.5C 365.842,160.398 365.176,161.398 364.5,162.5C 363.914,162.291 363.414,161.957 363,161.5C 361.169,169.481 359.669,177.481 358.5,185.5C 358.932,188.982 357.599,191.315 354.5,192.5C 343.597,190.529 337.597,184.029 336.5,173C 336.183,167.602 336.517,162.102 337.5,156.5C 338.972,152.081 339.638,147.414 339.5,142.5C 341.623,130.658 344.456,118.658 348,106.5C 353.858,89.463 359.692,72.463 365.5,55.5C 350.562,52.3209 336.728,54.9875 324,63.5C 320.95,67.8462 318.783,72.5129 317.5,77.5C 317.534,73.3705 318.201,69.3705 319.5,65.5C 317.645,65.728 316.812,65.0613 317,63.5C 318.494,64.7472 319.994,64.7472 321.5,63.5C 321.291,62.914 320.957,62.414 320.5,62C 321.227,60.6012 321.727,59.1012 322,57.5C 324.268,56.2396 326.434,54.9063 328.5,53.5C 328.167,52.5 327.5,51.8333 326.5,51.5C 324.083,53.1067 321.416,54.1067 318.5,54.5C 324.416,49.213 331.416,46.0463 339.5,45C 353.824,42.466 367.491,44.466 380.5,51C 377.833,57.3333 375.167,63.6667 372.5,70C 375.724,71.1563 379.057,71.9897 382.5,72.5 Z"/></g>
<g><path style="opacity:1" fill="#1aceda" d="M 453.5,115.5 C 451.534,122.403 449.201,129.07 446.5,135.5C 445.178,135.33 444.011,135.663 443,136.5C 442.666,139.936 441.166,142.603 438.5,144.5C 437.649,155.76 435.983,156.093 433.5,145.5C 434.821,143.026 435.654,140.693 436,138.5C 434.667,139.833 433.333,139.833 432,138.5C 430.951,143.051 428.118,145.051 423.5,144.5C 423.746,139.547 421.746,135.881 417.5,133.5C 421.412,119.489 426.079,105.822 431.5,92.5C 433.265,93.7937 435.098,94.7937 437,95.5C 437.738,93.0472 438.238,90.5472 438.5,88C 435.416,83.5057 436.082,79.6724 440.5,76.5C 441.271,78.8622 442.105,81.1955 443,83.5C 444,84.8333 445,84.8333 446,83.5C 448.236,80.8364 447.569,79.1697 444,78.5C 442.802,74.1912 443.802,70.5245 447,67.5C 447.929,70.7751 447.429,73.7751 445.5,76.5C 446.32,78.1112 447.654,78.7778 449.5,78.5C 449.5,79.8333 449.5,81.1667 449.5,82.5C 451.124,82.6399 452.29,81.9733 453,80.5C 453.333,80.8333 453.667,81.1667 454,81.5C 454.483,80.552 454.649,79.552 454.5,78.5C 455.5,78.5 456.5,78.5 457.5,78.5C 457.137,81.989 456.804,85.489 456.5,89C 456.654,91.3791 457.32,93.5458 458.5,95.5C 457.225,98.3728 456.392,101.373 456,104.5C 455.308,103.975 454.808,103.308 454.5,102.5C 455.891,100.064 455.391,99.3975 453,100.5C 452.612,105.511 452.778,110.511 453.5,115.5 Z"/></g>
<g><path style="opacity:1" fill="#72d8e1" d="M 252.5,75.5 C 250.53,83.7279 248.197,91.7279 245.5,99.5C 245.335,96.4816 245.502,93.4816 246,90.5C 248.213,85.7386 249.547,80.7386 250,75.5C 250.333,76.1667 250.667,76.8333 251,77.5C 251.278,76.5842 251.778,75.9175 252.5,75.5 Z"/></g>
<g><path style="opacity:0.012" fill="#acfdfd" d="M 151.5,82.5 C 151.232,84.099 151.566,85.4324 152.5,86.5C 151.577,88.767 150.744,91.1003 150,93.5C 149.65,89.6186 150.15,85.9519 151.5,82.5 Z"/></g>
<g><path style="opacity:1" fill="#6fd7dd" d="M 317.5,77.5 C 315.402,85.7949 312.735,93.7949 309.5,101.5C 309.018,100.584 308.685,99.5837 308.5,98.5C 309.876,95.8486 310.876,93.0153 311.5,90C 310.062,87.6337 310.562,87.1337 313,88.5C 313.988,85.5755 314.654,82.5755 315,79.5C 315.417,78.244 316.25,77.5774 317.5,77.5 Z"/></g>
<g><path style="opacity:1" fill="#68d5dd" d="M 165.5,80.5 C 163.332,87.6698 160.999,94.6698 158.5,101.5C 159.153,93.9507 160.987,86.6174 164,79.5C 164.383,80.056 164.883,80.3893 165.5,80.5 Z"/></g>
<g><path style="opacity:1" fill="#19cdda" d="M 215.5,42.5 C 216.222,42.9175 216.722,43.5842 217,44.5C 217.671,43.7476 218.504,43.4142 219.5,43.5C 219.833,43.5 220.167,43.5 220.5,43.5C 221.36,47.4338 221.693,51.4338 221.5,55.5C 222.405,56.7024 222.405,58.0357 221.5,59.5C 220.366,61.9664 220.199,64.633 221,67.5C 224.394,66.5442 227.894,66.2108 231.5,66.5C 233.384,66.7118 234.717,67.7118 235.5,69.5C 233.803,80.7762 232.469,92.1096 231.5,103.5C 230.366,105.966 230.199,108.633 231,111.5C 231.41,110.099 231.91,108.766 232.5,107.5C 232.547,109.178 232.88,111.011 233.5,113C 234.009,114.169 234.842,115.002 236,115.5C 237.487,114.259 238.32,114.759 238.5,117C 237.714,120.458 237.38,123.958 237.5,127.5C 236.143,134.26 234.477,140.927 232.5,147.5C 231.533,148.806 230.199,149.473 228.5,149.5C 229.013,153.772 228.013,157.605 225.5,161C 225.833,162 226.167,163 226.5,164C 224.085,172.163 221.918,180.33 220,188.5C 218.951,186.893 217.451,186.227 215.5,186.5C 215.176,190.555 215.509,194.555 216.5,198.5C 217.842,195.679 218.508,195.846 218.5,199C 218.507,200.812 217.84,202.312 216.5,203.5C 217.905,205.883 217.571,208.05 215.5,210C 216.148,211.44 216.481,212.94 216.5,214.5C 216.675,216.621 216.341,218.621 215.5,220.5C 214.694,221.868 213.694,223.201 212.5,224.5C 210.994,225.747 209.494,225.747 208,224.5C 207.659,172.66 208.825,120.993 211.5,69.5C 211.167,68.1667 210.833,66.8333 210.5,65.5C 211.709,57.656 213.376,49.9894 215.5,42.5 Z"/></g>
<g><path style="opacity:0.635" fill="#a4e8eb" d="M 77.5,95.5 C 77.8128,99.0419 77.4794,102.375 76.5,105.5C 76.0618,105.565 75.7284,105.399 75.5,105C 76.132,101.73 76.7986,98.5629 77.5,95.5 Z"/></g>
<g><path style="opacity:0.333" fill="#b2f1f3" d="M 87.5,99.5 C 87.445,112.591 86.1117,125.591 83.5,138.5C 83.8837,125.261 85.217,112.261 87.5,99.5 Z"/></g>
<g><path style="opacity:0.153" fill="#a9f8fa" d="M 233.5,102.5 C 233.737,103.791 233.404,104.791 232.5,105.5C 231.167,105.833 231.167,106.167 232.5,106.5C 232.5,106.833 232.5,107.167 232.5,107.5C 231.91,108.766 231.41,110.099 231,111.5C 230.199,108.633 230.366,105.966 231.5,103.5C 231.435,103.938 231.601,104.272 232,104.5C 232.278,103.584 232.778,102.918 233.5,102.5 Z"/></g>
<g><path style="opacity:1" fill="#5fd3da" d="M 309.5,101.5 C 306.602,114.911 303.935,128.244 301.5,141.5C 301.376,131.822 302.376,122.322 304.5,113C 303.475,108.137 305.142,104.304 309.5,101.5 Z"/></g>
<g><path style="opacity:1" fill="#6ed7e0" d="M 384.5,108.5 C 381.671,116.995 378.671,125.329 375.5,133.5C 375.337,131.143 375.503,128.81 376,126.5C 378.176,120.928 379.843,115.261 381,109.5C 382.145,109.381 383.312,109.048 384.5,108.5 Z"/></g>
<g><path style="opacity:1" fill="#6bd7e0" d="M 158.5,101.5 C 156.537,109.051 154.204,116.385 151.5,123.5C 151.917,120.921 151.25,118.754 149.5,117C 153.526,113.451 155.859,108.951 156.5,103.5C 157.182,102.757 157.849,102.091 158.5,101.5 Z"/></g>
<g><path style="opacity:0.89" fill="#9ce6ea" d="M 122.5,112.5 C 122.404,118.373 121.737,124.04 120.5,129.5C 120.062,129.565 119.728,129.399 119.5,129C 120.322,123.375 121.322,117.875 122.5,112.5 Z"/></g>
<g><path style="opacity:0.859" fill="#95e5e9" d="M 273.5,127.5 C 273.59,130.152 272.924,132.485 271.5,134.5C 271.41,131.848 272.076,129.515 273.5,127.5 Z"/></g>
<g><path style="opacity:1" fill="#58d0dc" d="M 151.5,123.5 C 148.207,135.704 144.541,147.704 140.5,159.5C 142.276,148.006 144.776,136.672 148,125.5C 148.333,126.5 148.667,127.5 149,128.5C 149.05,126.256 149.883,124.589 151.5,123.5 Z"/></g>
<g><path style="opacity:1" fill="#24ceda" d="M 417.5,133.5 C 421.746,135.881 423.746,139.547 423.5,144.5C 428.118,145.051 430.951,143.051 432,138.5C 433.333,139.833 434.667,139.833 436,138.5C 435.654,140.693 434.821,143.026 433.5,145.5C 435.983,156.093 437.649,155.76 438.5,144.5C 441.166,142.603 442.666,139.936 443,136.5C 444.011,135.663 445.178,135.33 446.5,135.5C 440.152,155.581 433.818,175.581 427.5,195.5C 425.876,197.151 424.543,199.151 423.5,201.5C 421.416,207.281 420.416,213.281 420.5,219.5C 415.475,238.274 410.475,256.941 405.5,275.5C 404.21,276.058 403.377,277.058 403,278.5C 402.502,281.482 402.335,284.482 402.5,287.5C 401.125,296.996 399.125,306.329 396.5,315.5C 395.215,318.589 394.549,321.922 394.5,325.5C 394.129,331.076 393.129,336.409 391.5,341.5C 390.853,340.726 390.52,339.726 390.5,338.5C 392.698,326.764 394.698,315.097 396.5,303.5C 394.876,303.36 393.71,304.027 393,305.5C 389.871,302.845 389.705,300.011 392.5,297C 391.975,296.308 391.308,295.808 390.5,295.5C 389.193,296.816 387.693,297.816 386,298.5C 385.64,300.421 384.806,302.088 383.5,303.5C 380.663,298.65 378.997,293.317 378.5,287.5C 378.334,283.486 378.501,279.486 379,275.5C 379.926,271.759 381.093,268.092 382.5,264.5C 381.754,263.264 381.421,261.93 381.5,260.5C 391.077,217.442 403.077,175.109 417.5,133.5 Z"/></g>
<g><path style="opacity:1" fill="#6cd7dc" d="M 372.5,142.5 C 370.871,148.392 368.871,154.059 366.5,159.5C 366.423,158.25 365.756,157.417 364.5,157C 366.871,152.716 368.871,148.216 370.5,143.5C 371.183,143.137 371.85,142.804 372.5,142.5 Z"/></g>
<g><path style="opacity:0.796" fill="#7bdfe3" d="M 339.5,142.5 C 339.638,147.414 338.972,152.081 337.5,156.5C 337.362,151.586 338.028,146.919 339.5,142.5 Z"/></g>
<g><path style="opacity:1" fill="#4ecfd8" d="M 271.5,134.5 C 271.166,141.507 270.666,148.507 270,155.5C 269.667,154.5 269.333,153.5 269,152.5C 268.666,154.847 268.833,157.181 269.5,159.5C 265.129,163.707 263.296,169.04 264,175.5C 262.311,179.963 260.478,184.297 258.5,188.5C 261.919,170.16 266.253,152.16 271.5,134.5 Z"/></g>
<g><path style="opacity:0.894" fill="#8edbdf" d="M 207.5,116.5 C 207.83,136.34 207.497,156.007 206.5,175.5C 206.842,170.475 206.508,165.642 205.5,161C 206.159,146.069 206.826,131.235 207.5,116.5 Z"/></g>
<g><path style="opacity:0.502" fill="#a4eff2" d="M 81.5,159.5 C 82.0476,160.688 82.3809,161.855 82.5,163C 81.8549,168.267 81.1882,173.433 80.5,178.5C 80.1765,171.978 80.5098,165.645 81.5,159.5 Z"/></g>
<g><path style="opacity:0.576" fill="#a3ecf2" d="M 118.5,150.5 C 118.55,156.389 117.884,162.056 116.5,167.5C 116.45,161.611 117.116,155.944 118.5,150.5 Z"/></g>
<g><path style="opacity:0.137" fill="#b0fcfc" d="M 299.5,159.5 C 299.57,168.29 299.57,177.29 299.5,186.5C 299.167,186.5 298.833,186.5 298.5,186.5C 298.173,177.318 298.507,168.318 299.5,159.5 Z"/></g>
<g><path style="opacity:1" fill="#6ad4dc" d="M 366.5,159.5 C 364.412,168.426 361.745,177.093 358.5,185.5C 359.669,177.481 361.169,169.481 363,161.5C 363.414,161.957 363.914,162.291 364.5,162.5C 365.176,161.398 365.842,160.398 366.5,159.5 Z"/></g>
<g><path style="opacity:1" fill="#34ced9" d="M 89.5,83.5 C 89.4818,88.9559 88.8151,94.2892 87.5,99.5C 85.217,112.261 83.8837,125.261 83.5,138.5C 83.65,145.721 82.9833,152.721 81.5,159.5C 80.5098,165.645 80.1765,171.978 80.5,178.5C 80.8182,183.032 80.4849,187.366 79.5,191.5C 78.508,198.982 78.1746,206.648 78.5,214.5C 78.8005,222.586 78.4672,230.586 77.5,238.5C 76.5034,255.325 76.1701,272.325 76.5,289.5C 75.6219,302.478 75.2886,315.478 75.5,328.5C 74.6682,308.671 74.1682,288.671 74,268.5C 73.6667,269.5 73.3333,270.5 73,271.5C 72.6667,271.167 72.3333,270.833 72,270.5C 70.8145,260.88 71.6478,251.547 74.5,242.5C 71.3158,235.281 70.6491,227.781 72.5,220C 72.2919,216.609 71.4586,213.442 70,210.5C 69.2472,215.375 69.4138,220.208 70.5,225C 69.8148,227.795 69.3148,230.628 69,233.5C 68.8988,257.02 68.0655,280.354 66.5,303.5C 66.5,291.167 66.5,278.833 66.5,266.5C 67.4957,253.01 67.829,239.344 67.5,225.5C 68.2922,185.277 71.2922,145.277 76.5,105.5C 77.4794,102.375 77.8128,99.0419 77.5,95.5C 78.7358,82.3322 80.7358,69.3322 83.5,56.5C 85.6075,56.2779 87.2742,55.2779 88.5,53.5C 89.7362,54.2458 91.0695,54.5792 92.5,54.5C 91.2039,60.725 90.0373,67.0583 89,73.5C 88.1925,77.0267 88.3592,80.3601 89.5,83.5 Z"/></g>
<g><path style="opacity:0.416" fill="#b8f6f5" d="M 223.5,182.5 C 223.938,182.435 224.272,182.601 224.5,183C 223.915,184.302 223.249,185.469 222.5,186.5C 222.232,184.901 222.566,183.568 223.5,182.5 Z"/></g>
<g><path style="opacity:1" fill="#5dd3db" d="M 140.5,159.5 C 134.653,179.544 128.486,199.544 122,219.5C 121.292,220.381 120.458,221.047 119.5,221.5C 120.931,217.653 121.931,213.653 122.5,209.5C 122.32,208.446 121.987,207.446 121.5,206.5C 123.759,202.891 125.926,199.224 128,195.5C 129.145,189.234 130.979,183.234 133.5,177.5C 133.392,176.558 133.059,175.725 132.5,175C 133.428,174.612 134.095,173.945 134.5,173C 135.424,169.472 136.424,165.972 137.5,162.5C 138.288,161.23 139.288,160.23 140.5,159.5 Z"/></g>
<g><path style="opacity:1" fill="#50d1db" d="M 232.5,147.5 C 229.695,159.242 226.695,170.909 223.5,182.5C 222.566,183.568 222.232,184.901 222.5,186.5C 220.863,196.026 218.863,205.359 216.5,214.5C 216.481,212.94 216.148,211.44 215.5,210C 217.571,208.05 217.905,205.883 216.5,203.5C 217.84,202.312 218.507,200.812 218.5,199C 218.508,195.846 217.842,195.679 216.5,198.5C 215.509,194.555 215.176,190.555 215.5,186.5C 217.451,186.227 218.951,186.893 220,188.5C 221.918,180.33 224.085,172.163 226.5,164C 226.167,163 225.833,162 225.5,161C 228.013,157.605 229.013,153.772 228.5,149.5C 230.199,149.473 231.533,148.806 232.5,147.5 Z"/></g>
<g><path style="opacity:1" fill="#20cdda" d="M 269.5,159.5 C 268.854,164.825 269.854,169.658 272.5,174C 271.714,175.752 271.88,177.586 273,179.5C 273.202,177.744 273.702,176.078 274.5,174.5C 275.881,175 276.547,176 276.5,177.5C 275.252,182.59 274.085,187.59 273,192.5C 273.333,193.167 273.667,193.833 274,194.5C 275.019,193.313 276.186,192.313 277.5,191.5C 279.02,186.294 279.853,180.961 280,175.5C 280.414,175.043 280.914,174.709 281.5,174.5C 284.189,176.815 283.855,178.815 280.5,180.5C 281.771,184.813 281.771,189.146 280.5,193.5C 280.747,194.713 281.414,195.38 282.5,195.5C 282.349,198.718 281.516,199.051 280,196.5C 279.242,198.769 279.409,200.936 280.5,203C 280,203.5 279.5,204 279,204.5C 278.566,212.45 277.066,220.117 274.5,227.5C 275.223,229.782 275.557,232.116 275.5,234.5C 275.5,235.5 275.5,236.5 275.5,237.5C 274.225,240.245 272.892,243.078 271.5,246C 272.127,249.099 272.127,252.266 271.5,255.5C 271.341,259.291 270.675,262.958 269.5,266.5C 267.586,269.684 266.92,273.351 267.5,277.5C 266.795,285.732 265.461,293.732 263.5,301.5C 262.527,303.948 262.194,306.615 262.5,309.5C 261.702,319.281 260.369,328.948 258.5,338.5C 257.532,340.607 257.198,342.941 257.5,345.5C 256.68,337.24 256.68,328.907 257.5,320.5C 260.161,316.618 261.161,312.284 260.5,307.5C 259.5,307.5 258.5,307.5 257.5,307.5C 257.5,306.167 257.5,304.833 257.5,303.5C 258.5,303.5 259.5,303.5 260.5,303.5C 260.62,301.801 260.954,300.135 261.5,298.5C 260.195,293.53 259.028,288.53 258,283.5C 257.259,284.641 256.425,284.641 255.5,283.5C 254.52,284.981 253.353,286.315 252,287.5C 251.362,283.83 251.862,280.33 253.5,277C 252.773,275.601 252.273,274.101 252,272.5C 251.586,272.043 251.086,271.709 250.5,271.5C 249.67,277.138 249.17,282.804 249,288.5C 247.268,285.031 246.102,281.364 245.5,277.5C 244.5,277.5 243.5,277.5 242.5,277.5C 242.768,279.099 242.434,280.432 241.5,281.5C 241.5,279.833 241.5,278.167 241.5,276.5C 242.788,266.733 244.454,257.066 246.5,247.5C 249.133,243.016 250.133,238.016 249.5,232.5C 251.497,217.513 254.497,202.847 258.5,188.5C 260.478,184.297 262.311,179.963 264,175.5C 263.296,169.04 265.129,163.707 269.5,159.5 Z"/></g>
<g><path style="opacity:1" fill="#69d6de" d="M 427.5,195.5 C 425.457,203.689 423.123,211.689 420.5,219.5C 420.416,213.281 421.416,207.281 423.5,201.5C 424.543,199.151 425.876,197.151 427.5,195.5 Z"/></g>
<g><path style="opacity:0.251" fill="#adf3f6" d="M 79.5,191.5 C 79.5928,193.405 79.9262,195.238 80.5,197C 79.8524,202.933 79.1858,208.766 78.5,214.5C 78.1746,206.648 78.508,198.982 79.5,191.5 Z"/></g>
<g><path style="opacity:1" fill="#1ecdda" d="M 171.5,188.5 C 170.47,219.826 170.304,251.16 171,282.5C 171.383,283.056 171.883,283.389 172.5,283.5C 172.263,284.791 172.596,285.791 173.5,286.5C 174.483,290.298 174.817,294.298 174.5,298.5C 174.971,308.909 176.138,319.242 178,329.5C 178.333,329.167 178.667,328.833 179,328.5C 180.728,331.639 181.894,334.972 182.5,338.5C 181.06,339.952 179.394,340.952 177.5,341.5C 172.782,338.071 170.115,333.404 169.5,327.5C 169.664,324.813 169.497,322.146 169,319.5C 168.901,317.347 168.067,315.681 166.5,314.5C 166.5,314.167 166.5,313.833 166.5,313.5C 166.768,311.901 166.434,310.568 165.5,309.5C 164.523,306.713 164.19,303.713 164.5,300.5C 164.693,296.434 164.36,292.434 163.5,288.5C 163.5,287.833 163.5,287.167 163.5,286.5C 164.649,286.209 165.316,285.376 165.5,284C 164.204,281.266 163.704,278.433 164,275.5C 164.741,276.641 165.575,276.641 166.5,275.5C 167.661,271.205 167.828,266.871 167,262.5C 164.312,268.891 161.979,275.557 160,282.5C 159.667,281.833 159.333,281.167 159,280.5C 158.666,282.847 158.833,285.181 159.5,287.5C 157.473,287.338 155.473,287.505 153.5,288C 150.509,290.99 148.343,294.49 147,298.5C 144.597,299.879 142.43,301.545 140.5,303.5C 141.626,299.891 141.626,295.891 140.5,291.5C 140.138,296.353 138.805,300.853 136.5,305C 138.227,308.276 138.894,311.776 138.5,315.5C 137.5,315.5 136.5,315.5 135.5,315.5C 135.663,313.143 135.497,310.81 135,308.5C 134.617,307.944 134.117,307.611 133.5,307.5C 133.534,300.747 134.201,294.08 135.5,287.5C 136.873,287.657 138.207,287.49 139.5,287C 138.572,286.612 137.905,285.945 137.5,285C 139.486,281.261 139.82,277.428 138.5,273.5C 145.144,245.4 153.311,217.733 163,190.5C 165.432,186.814 168.265,186.147 171.5,188.5 Z"/></g>
<g><path style="opacity:0.565" fill="#b1f0f4" d="M 311.5,219.5 C 312.906,219.973 313.573,220.973 313.5,222.5C 312.094,222.027 311.427,221.027 311.5,219.5 Z"/></g>
<g><path style="opacity:1" fill="#65cfd7" d="M 171.5,188.5 C 172.222,188.918 172.722,189.584 173,190.5C 173.5,209.497 173.667,228.497 173.5,247.5C 172.505,259.322 172.172,271.322 172.5,283.5C 171.883,283.389 171.383,283.056 171,282.5C 170.304,251.16 170.47,219.826 171.5,188.5 Z"/></g>
<g><path style="opacity:1" fill="#3acfd9" d="M 298.5,186.5 C 298.833,186.5 299.167,186.5 299.5,186.5C 301.134,198.407 305.134,209.407 311.5,219.5C 311.427,221.027 312.094,222.027 313.5,222.5C 321.415,231.066 331.082,236.733 342.5,239.5C 343.086,239.291 343.586,238.957 344,238.5C 342.926,249.782 340.759,260.782 337.5,271.5C 337.872,268.978 337.039,266.978 335,265.5C 334.637,261.134 334.637,256.801 335,252.5C 334,253.167 333,253.833 332,254.5C 331.667,259.167 331.333,263.833 331,268.5C 330.586,268.957 330.086,269.291 329.5,269.5C 328.833,272.167 328.167,274.833 327.5,277.5C 326.817,277.863 326.15,278.196 325.5,278.5C 326.308,268.885 328.308,259.219 331.5,249.5C 325.202,245.681 318.869,241.848 312.5,238C 297.556,222.941 289.556,204.774 288.5,183.5C 288.662,181.473 288.495,179.473 288,177.5C 287.178,180.117 286.678,182.784 286.5,185.5C 283.196,202.034 279.529,218.368 275.5,234.5C 275.557,232.116 275.223,229.782 274.5,227.5C 277.066,220.117 278.566,212.45 279,204.5C 279.5,204 280,203.5 280.5,203C 279.409,200.936 279.242,198.769 280,196.5C 281.516,199.051 282.349,198.718 282.5,195.5C 283.603,188.634 284.77,181.634 286,174.5C 286.741,175.641 287.575,175.641 288.5,174.5C 289.329,169.533 289.829,164.533 290,159.5C 290.76,163.819 291.427,168.152 292,172.5C 292.333,172.167 292.667,171.833 293,171.5C 293.658,173.108 293.158,174.275 291.5,175C 293.916,178.412 295.249,182.246 295.5,186.5C 294.63,189.186 294.13,191.853 294,194.5C 294.667,195.833 295.333,195.833 296,194.5C 297.144,191.92 297.978,189.253 298.5,186.5 Z"/></g>
<g><path style="opacity:0.008" fill="#b5fefe" d="M 288.5,183.5 C 287.833,184.167 287.167,184.833 286.5,185.5C 286.678,182.784 287.178,180.117 288,177.5C 288.495,179.473 288.662,181.473 288.5,183.5 Z"/></g>
<g><path style="opacity:1" fill="#73d9e5" d="M 249.5,232.5 C 250.133,238.016 249.133,243.016 246.5,247.5C 246.882,242.256 247.882,237.256 249.5,232.5 Z"/></g>
<g><path style="opacity:1" fill="#8ee4e8" d="M 275.5,237.5 C 274.582,243.713 273.249,249.713 271.5,255.5C 272.127,252.266 272.127,249.099 271.5,246C 272.892,243.078 274.225,240.245 275.5,237.5 Z"/></g>
<g><path style="opacity:0.565" fill="#abe6ea" d="M 67.5,225.5 C 67.829,239.344 67.4957,253.01 66.5,266.5C 65.5562,264.251 65.2229,261.751 65.5,259C 66.1567,247.735 66.8233,236.569 67.5,225.5 Z"/></g>
<g><path style="opacity:0.439" fill="#94edf2" d="M 77.5,238.5 C 77.7683,253.814 77.7683,270.814 77.5,289.5C 77.1667,289.5 76.8333,289.5 76.5,289.5C 76.1701,272.325 76.5034,255.325 77.5,238.5 Z"/></g>
<g><path style="opacity:1" fill="#82dce0" d="M 269.5,266.5 C 269.57,270.425 268.903,274.091 267.5,277.5C 266.92,273.351 267.586,269.684 269.5,266.5 Z"/></g>
<g><path style="opacity:0.251" fill="#c8f9fb" d="M 173.5,247.5 C 173.547,260.709 173.547,273.709 173.5,286.5C 172.596,285.791 172.263,284.791 172.5,283.5C 172.172,271.322 172.505,259.322 173.5,247.5 Z"/></g>
<g><path style="opacity:1" fill="#7adde3" d="M 405.5,275.5 C 405.102,279.761 404.102,283.761 402.5,287.5C 402.335,284.482 402.502,281.482 403,278.5C 403.377,277.058 404.21,276.058 405.5,275.5 Z"/></g>
<g><path style="opacity:0.894" fill="#9be3e7" d="M 241.5,276.5 C 241.5,278.167 241.5,279.833 241.5,281.5C 241.672,282.492 241.338,283.158 240.5,283.5C 240.062,283.565 239.728,283.399 239.5,283C 240.117,280.723 240.784,278.556 241.5,276.5 Z"/></g>
<g><path style="opacity:0.514" fill="#9cecf2" d="M 377.5,277.5 C 377.59,280.152 376.924,282.485 375.5,284.5C 375.41,281.848 376.076,279.515 377.5,277.5 Z"/></g>
<g><path style="opacity:1" fill="#20ceda" d="M 257.5,345.5 C 257.612,351.726 256.946,357.726 255.5,363.5C 252.802,365.207 250.469,367.207 248.5,369.5C 233.79,371.361 220.457,368.028 208.5,359.5C 206.586,355.092 203.252,352.259 198.5,351C 200.125,350.147 200.458,349.147 199.5,348C 197.866,347.506 196.199,347.34 194.5,347.5C 192.833,344.833 191.167,342.167 189.5,339.5C 190.5,339.5 191.5,339.5 192.5,339.5C 192.414,340.496 192.748,341.329 193.5,342C 199.164,344.832 205.164,346.332 211.5,346.5C 218.599,348.318 225.433,347.652 232,344.5C 233.353,333.427 234.853,322.427 236.5,311.5C 237.468,309.393 237.802,307.059 237.5,304.5C 237.931,297.379 238.931,290.379 240.5,283.5C 241.338,283.158 241.672,282.492 241.5,281.5C 242.434,280.432 242.768,279.099 242.5,277.5C 243.5,277.5 244.5,277.5 245.5,277.5C 246.102,281.364 247.268,285.031 249,288.5C 249.17,282.804 249.67,277.138 250.5,271.5C 251.086,271.709 251.586,272.043 252,272.5C 252.273,274.101 252.773,275.601 253.5,277C 251.862,280.33 251.362,283.83 252,287.5C 253.353,286.315 254.52,284.981 255.5,283.5C 256.425,284.641 257.259,284.641 258,283.5C 259.028,288.53 260.195,293.53 261.5,298.5C 260.954,300.135 260.62,301.801 260.5,303.5C 259.5,303.5 258.5,303.5 257.5,303.5C 257.5,304.833 257.5,306.167 257.5,307.5C 258.5,307.5 259.5,307.5 260.5,307.5C 261.161,312.284 260.161,316.618 257.5,320.5C 256.68,328.907 256.68,337.24 257.5,345.5 Z"/></g>
<g><path style="opacity:0.451" fill="#afecf0" d="M 323.5,289.5 C 323.795,291.735 323.461,293.735 322.5,295.5C 322.062,295.565 321.728,295.399 321.5,295C 322.109,293.052 322.776,291.218 323.5,289.5 Z"/></g>
<g><path style="opacity:0.698" fill="#aeeef2" d="M 163.5,288.5 C 164.36,292.434 164.693,296.434 164.5,300.5C 163.419,297.373 162.753,294.04 162.5,290.5C 162.328,289.508 162.662,288.842 163.5,288.5 Z"/></g>
<g><path style="opacity:1" fill="#34ced9" d="M 337.5,271.5 C 336.137,281.347 334.471,291.014 332.5,300.5C 330.357,309.438 329.69,318.438 330.5,327.5C 331.445,331.337 332.778,335.004 334.5,338.5C 334.427,340.027 335.094,341.027 336.5,341.5C 345.799,347.859 355.466,348.859 365.5,344.5C 366.344,346.851 366.011,349.184 364.5,351.5C 363.719,350.263 362.719,349.263 361.5,348.5C 361.167,349 360.833,349.5 360.5,350C 362.167,352.494 364.5,353.994 367.5,354.5C 364.705,356.515 364.039,359.015 365.5,362C 366.448,362.483 367.448,362.649 368.5,362.5C 368.5,363.5 368.5,364.5 368.5,365.5C 367.127,365.343 365.793,365.51 364.5,366C 366.9,366.186 369.234,366.686 371.5,367.5C 376.372,368.335 381.038,368.669 385.5,368.5C 385.5,368.833 385.5,369.167 385.5,369.5C 371.706,373.35 360.039,369.684 350.5,358.5C 325.596,353.728 315.43,338.728 320,313.5C 320.176,307.359 321.009,301.359 322.5,295.5C 323.461,293.735 323.795,291.735 323.5,289.5C 323.43,285.575 324.097,281.909 325.5,278.5C 326.15,278.196 326.817,277.863 327.5,277.5C 328.167,274.833 328.833,272.167 329.5,269.5C 330.086,269.291 330.586,268.957 331,268.5C 331.333,263.833 331.667,259.167 332,254.5C 333,253.833 334,253.167 335,252.5C 334.637,256.801 334.637,261.134 335,265.5C 337.039,266.978 337.872,268.978 337.5,271.5 Z"/></g>
<g><path style="opacity:1" fill="#69d8e0" d="M 163.5,286.5 C 163.5,287.167 163.5,287.833 163.5,288.5C 162.662,288.842 162.328,289.508 162.5,290.5C 160.679,295.452 159.012,300.452 157.5,305.5C 157.252,297.657 159.085,290.324 163,283.5C 163.483,284.448 163.649,285.448 163.5,286.5 Z"/></g>
<g><path style="opacity:1" fill="#21ceda" d="M 75.5,328.5 C 75.2627,329.791 75.596,330.791 76.5,331.5C 80.2793,338.758 86.2793,343.258 94.5,345C 103.477,348.019 112.477,348.185 121.5,345.5C 123.344,343.721 124.01,341.388 123.5,338.5C 124.096,331.892 125.43,325.558 127.5,319.5C 128.586,319.38 129.253,318.713 129.5,317.5C 130.012,313.739 130.845,310.072 132,306.5C 132.383,307.056 132.883,307.389 133.5,307.5C 134.117,307.611 134.617,307.944 135,308.5C 135.497,310.81 135.663,313.143 135.5,315.5C 136.5,315.5 137.5,315.5 138.5,315.5C 138.894,311.776 138.227,308.276 136.5,305C 138.805,300.853 140.138,296.353 140.5,291.5C 141.626,295.891 141.626,299.891 140.5,303.5C 142.43,301.545 144.597,299.879 147,298.5C 148.343,294.49 150.509,290.99 153.5,288C 155.473,287.505 157.473,287.338 159.5,287.5C 158.833,285.181 158.666,282.847 159,280.5C 159.333,281.167 159.667,281.833 160,282.5C 161.979,275.557 164.312,268.891 167,262.5C 167.828,266.871 167.661,271.205 166.5,275.5C 165.575,276.641 164.741,276.641 164,275.5C 163.704,278.433 164.204,281.266 165.5,284C 165.316,285.376 164.649,286.209 163.5,286.5C 163.649,285.448 163.483,284.448 163,283.5C 159.085,290.324 157.252,297.657 157.5,305.5C 153.353,325.426 149.519,345.426 146,365.5C 145.722,366.416 145.222,367.082 144.5,367.5C 142.219,367.077 140.552,367.744 139.5,369.5C 139.167,369.5 138.833,369.5 138.5,369.5C 132.5,369.5 126.5,369.5 120.5,369.5C 120.167,369.5 119.833,369.5 119.5,369.5C 117.485,368.076 115.152,367.41 112.5,367.5C 105.594,366.045 99.9277,362.545 95.5,357C 84.7702,355.39 75.9369,350.556 69,342.5C 66.9653,339.439 65.7986,336.105 65.5,332.5C 65.958,322.839 66.2913,313.172 66.5,303.5C 68.0655,280.354 68.8988,257.02 69,233.5C 69.3148,230.628 69.8148,227.795 70.5,225C 69.4138,220.208 69.2472,215.375 70,210.5C 71.4586,213.442 72.2919,216.609 72.5,220C 70.6491,227.781 71.3158,235.281 74.5,242.5C 71.6478,251.547 70.8145,260.88 72,270.5C 72.3333,270.833 72.6667,271.167 73,271.5C 73.3333,270.5 73.6667,269.5 74,268.5C 74.1682,288.671 74.6682,308.671 75.5,328.5 Z"/></g>
<g><path style="opacity:0.376" fill="#adf3f6" d="M 263.5,301.5 C 263.611,302.117 263.944,302.617 264.5,303C 263.883,305.277 263.216,307.444 262.5,309.5C 262.194,306.615 262.527,303.948 263.5,301.5 Z"/></g>
<g><path style="opacity:1" fill="#54d1d8" d="M 138.5,273.5 C 139.82,277.428 139.486,281.261 137.5,285C 137.905,285.945 138.572,286.612 139.5,287C 138.207,287.49 136.873,287.657 135.5,287.5C 134.201,294.08 133.534,300.747 133.5,307.5C 132.883,307.389 132.383,307.056 132,306.5C 130.845,310.072 130.012,313.739 129.5,317.5C 129.253,318.713 128.586,319.38 127.5,319.5C 130.251,303.832 133.918,288.499 138.5,273.5 Z"/></g>
<g><path style="opacity:0.886" fill="#a0e1e6" d="M 237.5,304.5 C 237.802,307.059 237.468,309.393 236.5,311.5C 236.062,311.565 235.728,311.399 235.5,311C 236.117,308.723 236.784,306.556 237.5,304.5 Z"/></g>
<g><path style="opacity:0.506" fill="#a6ecf2" d="M 332.5,300.5 C 331.899,309.505 331.233,318.505 330.5,327.5C 329.69,318.438 330.357,309.438 332.5,300.5 Z"/></g>
<g><path style="opacity:0.075" fill="#b0f8fa" d="M 165.5,309.5 C 166.434,310.568 166.768,311.901 166.5,313.5C 164.891,312.335 164.557,311.001 165.5,309.5 Z"/></g>
<g><path style="opacity:1" fill="#79d8df" d="M 166.5,314.5 C 168.067,315.681 168.901,317.347 169,319.5C 169.497,322.146 169.664,324.813 169.5,327.5C 167.74,323.453 166.74,319.12 166.5,314.5 Z"/></g>
<g><path style="opacity:0.89" fill="#a8edf2" d="M 66.5,266.5 C 66.5,278.833 66.5,291.167 66.5,303.5C 66.2913,313.172 65.958,322.839 65.5,332.5C 64.8342,328.18 64.5009,323.68 64.5,319C 64.9382,301.331 65.6049,283.831 66.5,266.5 Z"/></g>
<g><path style="opacity:1" fill="#46ccd5" d="M 381.5,260.5 C 381.421,261.93 381.754,263.264 382.5,264.5C 381.093,268.092 379.926,271.759 379,275.5C 378.501,279.486 378.334,283.486 378.5,287.5C 377.503,287.47 376.836,287.97 376.5,289C 375.431,292.443 374.598,295.943 374,299.5C 373.37,312.795 371.37,325.795 368,338.5C 367.148,339.571 366.315,340.571 365.5,341.5C 367.864,322.318 371.197,303.318 375.5,284.5C 376.924,282.485 377.59,280.152 377.5,277.5C 378.073,271.545 379.407,265.878 381.5,260.5 Z"/></g>
<g><path style="opacity:0.49" fill="#b6f6f7" d="M 396.5,315.5 C 396.678,319.122 396.011,322.456 394.5,325.5C 394.549,321.922 395.215,318.589 396.5,315.5 Z"/></g>
<g><path style="opacity:0.282" fill="#b2eced" d="M 76.5,289.5 C 76.8333,289.5 77.1667,289.5 77.5,289.5C 77.1061,303.498 76.7728,317.498 76.5,331.5C 75.596,330.791 75.2627,329.791 75.5,328.5C 75.2886,315.478 75.6219,302.478 76.5,289.5 Z"/></g>
<g><path style="opacity:1" fill="#15cddb" d="M 378.5,287.5 C 378.997,293.317 380.663,298.65 383.5,303.5C 384.806,302.088 385.64,300.421 386,298.5C 387.693,297.816 389.193,296.816 390.5,295.5C 391.308,295.808 391.975,296.308 392.5,297C 389.705,300.011 389.871,302.845 393,305.5C 393.71,304.027 394.876,303.36 396.5,303.5C 394.698,315.097 392.698,326.764 390.5,338.5C 390.52,339.726 390.853,340.726 391.5,341.5C 391.238,346.595 390.572,351.595 389.5,356.5C 388.624,360.766 387.291,364.766 385.5,368.5C 381.038,368.669 376.372,368.335 371.5,367.5C 369.234,366.686 366.9,366.186 364.5,366C 365.793,365.51 367.127,365.343 368.5,365.5C 368.5,364.5 368.5,363.5 368.5,362.5C 367.448,362.649 366.448,362.483 365.5,362C 364.039,359.015 364.705,356.515 367.5,354.5C 364.5,353.994 362.167,352.494 360.5,350C 360.833,349.5 361.167,349 361.5,348.5C 362.719,349.263 363.719,350.263 364.5,351.5C 366.011,349.184 366.344,346.851 365.5,344.5C 365.5,343.5 365.5,342.5 365.5,341.5C 366.315,340.571 367.148,339.571 368,338.5C 371.37,325.795 373.37,312.795 374,299.5C 374.598,295.943 375.431,292.443 376.5,289C 376.836,287.97 377.503,287.47 378.5,287.5 Z"/></g>
<g><path style="opacity:0.675" fill="#b6edeb" d="M 334.5,338.5 C 335.906,338.973 336.573,339.973 336.5,341.5C 335.094,341.027 334.427,340.027 334.5,338.5 Z"/></g>
<g><path style="opacity:0.384" fill="#b3eaf0" d="M 123.5,338.5 C 124.01,341.388 123.344,343.721 121.5,345.5C 122.065,343.048 122.732,340.715 123.5,338.5 Z"/></g>
<g><path style="opacity:1" fill="#49d0da" d="M 174.5,298.5 C 176.452,309.165 178.952,319.831 182,330.5C 185.103,334.114 188.603,337.114 192.5,339.5C 191.5,339.5 190.5,339.5 189.5,339.5C 191.167,342.167 192.833,344.833 194.5,347.5C 196.199,347.34 197.866,347.506 199.5,348C 200.458,349.147 200.125,350.147 198.5,351C 203.252,352.259 206.586,355.092 208.5,359.5C 200.044,354.771 191.377,350.271 182.5,346C 180.382,344.951 178.716,343.451 177.5,341.5C 179.394,340.952 181.06,339.952 182.5,338.5C 181.894,334.972 180.728,331.639 179,328.5C 178.667,328.833 178.333,329.167 178,329.5C 176.138,319.242 174.971,308.909 174.5,298.5 Z"/></g>
<g><path style="opacity:0.196" fill="#c0f4f7" d="M 258.5,338.5 C 258.938,338.435 259.272,338.601 259.5,339C 258.883,341.277 258.216,343.444 257.5,345.5C 257.198,342.941 257.532,340.607 258.5,338.5 Z"/></g>
<g><path style="opacity:1" fill="#61d4dd" d="M 192.5,339.5 C 198.842,342.056 205.176,344.389 211.5,346.5C 205.164,346.332 199.164,344.832 193.5,342C 192.748,341.329 192.414,340.496 192.5,339.5 Z"/></g>
<g><path style="opacity:0.553" fill="#a2eced" d="M 389.5,356.5 C 389.261,360.842 388.927,365.176 388.5,369.5C 387.5,369.5 386.5,369.5 385.5,369.5C 385.5,369.167 385.5,368.833 385.5,368.5C 387.291,364.766 388.624,360.766 389.5,356.5 Z"/></g>
<g><path style="opacity:1" fill="#74d6dd" d="M 255.5,363.5 C 256.509,364.939 256.176,366.272 254.5,367.5C 252.677,368.747 250.677,369.414 248.5,369.5C 250.469,367.207 252.802,365.207 255.5,363.5 Z"/></g>
<g><path style="opacity:1" fill="#92dbe2" d="M 144.5,367.5 C 143.22,368.931 141.553,369.598 139.5,369.5C 140.552,367.744 142.219,367.077 144.5,367.5 Z"/></g>
<g><path style="opacity:0.573" fill="#94eaed" d="M 112.5,367.5 C 115.152,367.41 117.485,368.076 119.5,369.5C 116.848,369.59 114.515,368.924 112.5,367.5 Z"/></g>
<g><path style="opacity:0.796" fill="#9be4e9" d="M 120.5,369.5 C 126.5,369.5 132.5,369.5 138.5,369.5C 132.349,371.396 126.349,371.396 120.5,369.5 Z"/></g>
</svg>
